<svg xmlns="http://www.w3.org/2000/svg" width="200.419" height="123.242" viewBox="0 0 200.419 123.242">
  <g id="Сгруппировать_69" data-name="Сгруппировать 69" transform="translate(-56.17 -2803.502)">
    <circle id="Эллипс_4" data-name="Эллипс 4" cx="23.158" cy="23.158" r="23.158" transform="translate(133.202 2806.091)" fill="none" stroke="#3cb4e5" stroke-linecap="round" stroke-linejoin="round" stroke-width="5.178"/>
    <path id="Контур_173" data-name="Контур 173" d="M112.277,2924.155v-42.318a15.063,15.063,0,0,1,15.063-15.063h58.04a15.063,15.063,0,0,1,15.063,15.063v42.318" fill="none" stroke="#3cb4e5" stroke-linecap="round" stroke-linejoin="round" stroke-width="5.178"/>
    <line id="Линия_19" data-name="Линия 19" y2="26.84" transform="translate(156.36 2866.774)" fill="none" stroke="#3cb4e5" stroke-linecap="round" stroke-linejoin="round" stroke-width="5.178"/>
    <line id="Линия_20" data-name="Линия 20" y2="31.471" transform="translate(238.953 2885.574)" fill="none" stroke="#3cb4e5" stroke-linecap="round" stroke-linejoin="round" stroke-width="5.178"/>
    <circle id="Эллипс_5" data-name="Эллипс 5" cx="17.893" cy="17.893" r="17.893" transform="translate(196.535 2821.586) rotate(-22.651)" fill="none" stroke="#3cb4e5" stroke-linecap="round" stroke-linejoin="round" stroke-width="5.178"/>
    <path id="Контур_174" data-name="Контур 174" d="M200.407,2860.2h41.955A11.639,11.639,0,0,1,254,2871.84v45.2" fill="none" stroke="#3cb4e5" stroke-linecap="round" stroke-linejoin="round" stroke-width="5.178"/>
    <line id="Линия_21" data-name="Линия 21" y2="20.738" transform="translate(219.939 2860.202)" fill="none" stroke="#3cb4e5" stroke-linecap="round" stroke-linejoin="round" stroke-width="5.178"/>
    <line id="Линия_22" data-name="Линия 22" y2="31.471" transform="translate(73.286 2885.574)" fill="none" stroke="#3cb4e5" stroke-linecap="round" stroke-linejoin="round" stroke-width="5.178"/>
    <circle id="Эллипс_6" data-name="Эллипс 6" cx="17.893" cy="17.893" r="17.893" transform="matrix(0.229, -0.973, 0.973, 0.229, 71.308, 2844.534)" fill="none" stroke="#3cb4e5" stroke-linecap="round" stroke-linejoin="round" stroke-width="5.178"/>
    <path id="Контур_175" data-name="Контур 175" d="M58.759,2917.045v-45.2A11.639,11.639,0,0,1,70.4,2860.2h43.618" fill="none" stroke="#3cb4e5" stroke-linecap="round" stroke-linejoin="round" stroke-width="5.178"/>
    <line id="Линия_23" data-name="Линия 23" y2="20.738" transform="translate(92.82 2860.202)" fill="none" stroke="#3cb4e5" stroke-linecap="round" stroke-linejoin="round" stroke-width="5.178"/>
  </g>
</svg>
