<svg xmlns="http://www.w3.org/2000/svg" width="152.398" height="198.184" viewBox="0 0 152.398 198.184">
  <g id="Сгруппировать_70" data-name="Сгруппировать 70" transform="translate(-1054.789 -2767.411)">
    <path id="Контур_176" data-name="Контур 176" d="M1095.8,2787.8A17.8,17.8,0,1,1,1078,2770,17.8,17.8,0,0,1,1095.8,2787.8Z" fill="none" stroke="#3cb4e5" stroke-linecap="round" stroke-linejoin="round" stroke-width="5.178"/>
    <line id="Линия_24" data-name="Линия 24" y2="61.802" transform="translate(1090.731 2885.342)" fill="none" stroke="#3cb4e5" stroke-linecap="round" stroke-linejoin="round" stroke-width="5.178"/>
    <line id="Линия_25" data-name="Линия 25" y1="60.746" transform="translate(1065.265 2885.342)" fill="none" stroke="#3cb4e5" stroke-linecap="round" stroke-linejoin="round" stroke-width="5.178"/>
    <path id="Контур_177" data-name="Контур 177" d="M1078,2832.948v7.424a13.141,13.141,0,0,0,13.142,13.142h28.936" fill="none" stroke="#3cb4e5" stroke-linecap="round" stroke-linejoin="round" stroke-width="5.178"/>
    <path id="Контур_178" data-name="Контур 178" d="M1101.805,2963.006h0a16.918,16.918,0,0,0-16.918-16.918h-19.622v16.918Z" fill="none" stroke="#3cb4e5" stroke-linecap="round" stroke-linejoin="round" stroke-width="5.178"/>
    <path id="Контур_179" data-name="Контур 179" d="M1098.618,2841.818v-6.524a20.62,20.62,0,0,0-20.62-20.619h0a20.62,20.62,0,0,0-20.62,20.619v18.477a67.139,67.139,0,0,0,7.887,31.571h25.466a67.144,67.144,0,0,0,6.905-20.131" fill="none" stroke="#3cb4e5" stroke-linecap="round" stroke-linejoin="round" stroke-width="5.178"/>
    <path id="Контур_180" data-name="Контур 180" d="M1192.422,2867.582v95.424h-47.886v-76.828" fill="none" stroke="#3cb4e5" stroke-linecap="round" stroke-linejoin="round" stroke-width="5.178"/>
    <path id="Контур_181" data-name="Контур 181" d="M1203.87,2837.594v25.543l-69.974,27.172V2880.5a25.031,25.031,0,0,1,16.505-23.534l53.469-19.375" fill="none" stroke="#3cb4e5" stroke-linecap="round" stroke-linejoin="round" stroke-width="5.178"/>
    <line id="Линия_26" data-name="Линия 26" y1="26.042" transform="translate(1183.742 2818.845)" fill="none" stroke="#3cb4e5" stroke-linecap="round" stroke-linejoin="round" stroke-width="5.178"/>
    <line id="Линия_27" data-name="Линия 27" x1="25.319" y1="13.143" transform="translate(1167.103 2810.185)" fill="none" stroke="#3cb4e5" stroke-linecap="round" stroke-linejoin="round" stroke-width="5.178"/>
    <path id="Контур_182" data-name="Контур 182" d="M1167.1,2806.547a8.128,8.128,0,1,1-8.128-8.128A8.128,8.128,0,0,1,1167.1,2806.547Z" fill="none" stroke="#3cb4e5" stroke-linecap="round" stroke-linejoin="round" stroke-width="5.178"/>
  </g>
</svg>
